<?xml version="1.0" encoding="iso-8859-1"?>
<!-- Generator: Adobe Illustrator 19.0.0, SVG Export Plug-In . SVG Version: 6.00 Build 0)  -->
<svg version="1.1" id="Layer_1" xmlns="http://www.w3.org/2000/svg" xmlns:xlink="http://www.w3.org/1999/xlink" x="0px" y="0px"
	 viewBox="0 0 491.52 491.52" style="enable-background:new 0 0 491.52 491.52;" xml:space="preserve">
<g>
	<g>
		<path d="M419.84,235.52V153.6h-20.48V40.96H0v307.2h122.88v40.96H102.4v20.48h81.92v40.96h153.6h10.24h143.36V235.52H419.84z
			 M184.32,389.12h-40.96v-40.96h40.96V389.12z M184.32,327.68H20.48v-40.96h163.84V327.68z M184.32,266.24H20.48V61.44h358.4v92.16
			H184.32V266.24z M399.36,174.08v20.48H204.8v-20.48H399.36z M337.92,430.08H204.8v-40.96h133.12V430.08z M337.92,235.52v133.12
			H204.8v-153.6h194.56v20.48H337.92z M471.04,430.08H358.4V409.6h112.64V430.08z M471.04,389.12H358.4v-92.16h112.64V389.12z
			 M471.04,276.48H358.4V256h112.64V276.48z"/>
	</g>
</g>
<g>
</g>
<g>
</g>
<g>
</g>
<g>
</g>
<g>
</g>
<g>
</g>
<g>
</g>
<g>
</g>
<g>
</g>
<g>
</g>
<g>
</g>
<g>
</g>
<g>
</g>
<g>
</g>
<g>
</g>
</svg>
