<?xml version="1.0" standalone="no"?>
<!DOCTYPE svg PUBLIC "-//W3C//DTD SVG 20010904//EN"
 "http://www.w3.org/TR/2001/REC-SVG-20010904/DTD/svg10.dtd">
<svg version="1.0" xmlns="http://www.w3.org/2000/svg"
 width="1144.000000pt" height="1280.000000pt" viewBox="0 0 1144.000000 1280.000000"
 preserveAspectRatio="xMidYMid meet">
<metadata>
Created by potrace 1.15, written by Peter Selinger 2001-2017
</metadata>
<g transform="translate(0.000000,1280.000000) scale(0.100000,-0.100000)"
fill="#000000" stroke="none">
<defs>
        <linearGradient id="LightGradient">
          <stop offset="5%" stop-color="#ff0000" />
          <stop offset="95%" stop-color="rgb(216, 216, 216)" />
        </linearGradient>
        <linearGradient id="NightGradient">
          <stop offset="5%" stop-color="rgb(115, 95, 247)" />
          <stop offset="95%" stop-color="rgb(166, 51, 249)" />
        </linearGradient>
      </defs>
<path d="M5164 12789 c-88 -15 -205 -57 -296 -106 -238 -130 -421 -341 -542
-624 -585 -1369 -4255 -10079 -4272 -10139 -102 -350 -53 -716 132 -976 60
-85 177 -191 265 -241 284 -160 1155 -628 1207 -649 407 -163 907 55 1174 511
26 44 204 453 397 909 193 455 352 830 354 832 4 5 4517 640 4581 646 l38 3
173 -363 c95 -199 188 -388 206 -419 46 -75 148 -185 223 -237 106 -74 1241
-687 1325 -714 62 -21 101 -26 216 -29 125 -4 151 -2 236 20 179 46 330 137
480 286 231 231 360 526 376 857 7 146 -5 250 -43 380 -16 57 -692 1490 -2149
4555 -1168 2460 -2139 4497 -2157 4527 -42 70 -167 199 -238 245 -121 79
-1232 675 -1297 696 -125 40 -266 51 -389 30z m1231 -6030 c270 -567 491
-1037 493 -1044 2 -9 -9 -16 -30 -20 -96 -16 -1952 -274 -1955 -271 -2 2 218
527 488 1167 271 640 494 1172 497 1182 2 9 7 17 11 17 3 0 227 -464 496
-1031z"/>
</g>
</svg>
